<svg width="110" height="24" viewBox="0 0 110 24" fill="none" xmlns="http://www.w3.org/2000/svg">
<g clip-path="url(#clip0_12626_10753)">
<path d="M7.87622 4.81522C8.13063 4.75229 8.49143 5.04997 8.63515 5.23774C9.34186 6.16118 9.62667 7.47685 9.52315 8.61872C9.43434 9.59851 8.98865 10.4067 8.23403 11.0243C8.31271 12.5421 8.33934 15.9317 8.80684 17.184C9.23191 18.3226 10.0717 19.1931 11.1764 19.6958C12.4961 20.2963 14.2877 20.3831 15.6489 19.8705C16.7539 19.4543 17.4309 18.6976 17.9119 17.644C16.511 17.6878 14.9097 17.6512 13.4927 17.6529C13.4858 16.5508 13.4861 15.4488 13.4938 14.3469L21.7718 14.3467C21.8 16.4495 21.7943 18.2131 20.6948 20.1099C19.6041 21.9915 17.9793 23.061 15.9168 23.6166C14.6276 23.9201 13.2913 23.9671 11.984 23.7546C7.64509 23.0408 4.6162 19.5182 4.68805 15.0961C4.71079 13.6957 4.79499 12.5287 5.02398 11.14L5.0055 11.1348C3.98248 10.8356 3.46996 9.94003 3.25837 8.95266C2.87407 9.22349 2.49012 9.442 2.10573 9.73431C2.0968 9.69826 2.08755 9.66231 2.07806 9.62641C1.93044 9.06564 1.71495 8.74925 1.20703 8.45354C1.63827 8.14132 2.06413 7.82174 2.48443 7.49489C2.70233 7.79673 3.15494 8.50665 3.4232 8.6033C4.02504 9.01668 4.58214 8.03885 4.69433 8.04349C5.31483 8.06901 5.69405 8.22447 5.99436 7.40942C6.10588 7.10669 6.36298 7.32082 6.60155 7.25116C6.68794 7.22594 6.95059 6.83064 7.06847 6.77438C7.41034 6.50738 7.83523 7.02196 7.90771 7.31991C7.81146 7.74821 6.50376 8.07239 6.10273 8.50674C5.74563 8.89354 5.53947 9.0302 5.49274 9.6688C5.48035 9.83768 5.47904 10.0761 5.5889 10.2016C5.72531 10.1685 5.77457 9.96581 5.79287 9.84676C5.95328 8.80351 6.82228 8.33829 7.70505 7.97597C7.93209 7.88278 8.17719 7.79372 8.33878 7.56587C8.37792 7.36265 8.27668 6.91485 8.16917 6.75401C7.7628 6.12361 7.04654 6.43189 6.44315 6.35394C6.16981 6.36766 6.04918 5.86022 6.16234 5.69032C6.41483 5.31122 7.48666 4.97071 7.87622 4.81522Z" fill="#3385FF"/>
<path d="M12.5615 6.71444C12.9693 6.62805 14.3403 6.71216 14.7466 6.78202C17.4604 7.24824 19.0282 8.32266 20.6206 10.4577C19.5393 11.0687 18.4619 11.6869 17.3888 12.3124C16.9793 11.7398 16.6897 11.4854 16.1043 11.1C14.0633 9.89468 11.1702 10.1565 9.61589 12.0339C9.43622 12.2508 9.29792 12.4552 9.14523 12.6922C9.11905 12.2774 9.01199 11.6929 8.94678 11.2699C10.0503 10.2799 10.3452 8.67286 10.1524 7.26082C11.056 6.96142 11.6028 6.8089 12.5615 6.71444Z" fill="#01204E"/>
<path d="M11.8573 0C12.7697 0.000131369 13.0368 0.603905 13.5205 1.2703C13.7693 1.613 14.0645 2.47982 13.7363 2.83171C13.5175 2.75741 13.6151 2.55107 13.3824 2.44396L13.3096 2.48758C13.2291 2.66014 13.4114 2.84354 13.3873 3.14831C13.313 3.29172 13.3591 3.25288 13.2204 3.30222C13.0154 3.20717 13.0977 2.96676 12.8547 2.81337L12.7741 2.83609C12.7136 3.01563 12.8786 3.27255 12.837 3.56335C12.7563 3.67954 12.8024 3.64932 12.6652 3.67708C12.4735 3.55494 12.5515 3.26064 12.2879 3.18685L12.2205 3.23572C12.1692 3.43771 12.3263 3.60805 12.3147 3.91709C12.2358 4.03409 12.2794 4.00067 12.1528 4.04819C11.9335 3.92453 11.9444 3.53606 11.7098 3.56129C11.618 3.82303 11.8727 4.22382 11.6975 4.44589C11.4429 4.41489 11.4867 4.19357 11.273 3.94739L11.212 3.95186C11.0961 4.19284 11.2184 4.40526 11.309 4.63713C10.662 4.96818 9.84344 5.13943 9.13033 5.33404L7.86401 3.64068C8.28837 3.07606 8.64307 2.33146 9.15252 1.66042C9.47805 1.95574 9.78788 2.23486 10.0736 2.57148C10.2513 2.78074 10.581 3.73308 10.8752 3.64865C10.9634 3.14872 10.0607 2.14211 9.72538 1.82131C9.55425 1.66752 9.48331 1.63406 9.53778 1.4004C10.0509 1.08244 11.0473 2.82698 11.2551 3.19876C11.2834 3.24926 11.351 3.23563 11.3978 3.23134C11.7173 2.7366 10.12 1.32039 10.065 1.0291C10.7714 0.569399 11.5649 2.61525 11.9266 2.85028L12.0172 2.8075L12.0512 2.70539C11.9806 2.09298 10.9937 1.16595 10.6206 0.746003L10.6365 0.658511C11.4384 0.17043 12.2074 2.41874 12.5834 2.47295C12.6975 2.1426 12.0977 1.25326 11.8518 1.00357C11.6841 0.833408 11.3434 0.555036 11.2543 0.371469C11.2446 0.215183 11.2262 0.267775 11.3069 0.161409C11.925 -0.0741798 12.8133 1.94651 13.1565 2.01456C13.2093 1.69029 12.745 0.96469 12.5373 0.712154C12.3388 0.470872 12.0376 0.28367 11.8573 0Z" fill="#01204E"/>
<path d="M0.399885 9.6875C0.513914 9.74317 0.666128 9.92381 0.76067 10.0243C0.294483 10.9579 0.355003 11.4955 0.84558 12.4036C2.18173 11.244 4.36807 12.2882 3.38473 13.5996C3.19844 13.8461 2.91854 14.0046 2.61131 14.0376C2.06814 14.1012 1.64063 13.8597 1.23167 13.5438C1.05726 13.3824 0.952907 13.2499 0.804547 13.0679C0.319312 14.0749 0.535021 14.5494 0.599085 15.6001C0.553938 15.717 0.545924 15.7293 0.444639 15.8028L0.343002 15.7864C0.0976927 15.5683 0.0581943 14.8118 0.043262 14.4897C0.0116019 13.8043 0.187592 13.2868 0.527883 12.7021C-0.215712 11.5989 -0.0935376 10.8413 0.399885 9.6875Z" fill="#01204E"/>
<path d="M3.7859 4.94262C4.14319 4.92545 4.23024 4.97061 4.44945 5.26596C4.83326 5.78303 5.24082 6.31741 5.55203 6.88133C5.77334 7.28236 5.4345 7.51576 5.11264 7.65221C4.57368 7.47468 3.99991 6.63115 3.59681 6.2127C3.07726 5.67338 3.12621 5.307 3.7859 4.94262Z" fill="#01204E"/>
<path d="M2.76378 6.12402C3.35836 6.14767 3.65108 6.65878 3.96922 7.12033C4.28525 7.57886 4.29073 7.95128 3.75518 8.22716C3.26859 8.13657 2.19113 7.14683 2.32956 6.591C2.38678 6.36107 2.58083 6.23644 2.76378 6.12402Z" fill="#01204E"/>
<path d="M5.14619 3.90137C5.61609 3.9982 6.00377 4.6955 6.31988 5.10051C6.07081 5.31692 5.81346 5.62577 5.78819 5.97469C5.77922 6.09865 5.83338 6.14363 5.78719 6.27089L5.7265 6.26677C5.20951 5.58601 3.59502 4.28335 5.14619 3.90137Z" fill="#01204E"/>
<path d="M6.32322 3.02166C7.11419 2.91417 7.3007 3.79683 7.65639 4.39111C7.45834 4.46713 7.23896 4.57322 7.04374 4.66191L6.60369 4.88107C6.11491 4.24827 5.31868 3.55586 6.32322 3.02166Z" fill="#01204E"/>
<path d="M0.825941 8.6945C1.50622 8.68093 2.12107 9.50246 1.60772 10.0274C0.89583 10.0643 0.342239 9.31022 0.825941 8.6945Z" fill="#01204E"/>
<path d="M42.9812 11.2744V22.4846C42.9812 22.8699 42.8644 23.2027 42.6309 23.483C42.3972 23.7517 42.1229 23.8858 41.8076 23.8858C41.0019 23.8858 40.3421 23.4189 39.8283 22.4846L35.5194 15.741V23.7457H33.0847V11.2744H35.4318L40.5465 19.4368V11.2744H42.9812Z" fill="#01204E"/>
<path d="M30.8695 23.7457H26.4555C25.0542 23.7457 24.0675 23.5064 23.4953 23.0276C22.9348 22.5371 22.6545 21.6788 22.6545 20.4527V11.2744H30.8695V13.4464H25.0893V16.3715H29.1354L28.9603 18.5435H25.0893V20.2776C25.0893 20.768 25.2001 21.1068 25.4221 21.2935C25.644 21.4804 26.0468 21.5737 26.6307 21.5737H30.8695V23.7457Z" fill="#01204E"/>
<path d="M98.4702 23.6059V11.3447H109.996V14.8829H103.375V15.9689H108.104V18.9817H103.375V20.0677H109.996V23.6059H98.4702Z" fill="#01204E"/>
<path d="M90.6595 23.8861C89.2582 23.8861 88.0146 23.6351 86.9286 23.1329C85.8426 22.6307 84.9903 21.9361 84.3713 21.0485C83.7642 20.161 83.4604 19.1451 83.4604 18.0008V16.9498C83.4604 15.7938 83.7642 14.7778 84.3713 13.902C84.9903 13.0146 85.8426 12.3197 86.9286 11.8176C88.0146 11.3155 89.2582 11.0645 90.6595 11.0645C91.8973 11.0645 93.0184 11.263 94.0226 11.66C95.0269 12.057 95.8502 12.6117 96.4923 13.324C97.1463 14.0246 97.5375 14.8479 97.6659 15.7938L92.6388 16.8097C92.5922 16.3309 92.382 15.928 92.0082 15.6011C91.6463 15.2624 91.1967 15.0931 90.6595 15.0931C90.0874 15.0931 89.6028 15.2741 89.2057 15.6361C88.8088 15.9981 88.6101 16.436 88.6101 16.9498V18.0008C88.6101 18.5145 88.8088 18.9524 89.2057 19.3145C89.6028 19.6765 90.0874 19.8574 90.6595 19.8574C91.1967 19.8574 91.6463 19.694 92.0082 19.367C92.382 19.0284 92.5922 18.6196 92.6388 18.1409L97.6659 19.1568C97.5375 20.0909 97.1463 20.9142 96.4923 21.6266C95.8502 22.3389 95.0269 22.8935 94.0226 23.2906C93.0184 23.6877 91.8973 23.8861 90.6595 23.8861Z" fill="#01204E"/>
<path d="M77.499 23.6059V11.3447H82.4035V23.6059H77.499Z" fill="#01204E"/>
<path d="M69.2437 23.8861C67.8424 23.8861 66.5988 23.6351 65.5128 23.1329C64.4268 22.6307 63.5743 21.9361 62.9555 21.0485C62.3482 20.161 62.0447 19.1451 62.0447 18.0008V16.9498C62.0447 15.7938 62.3482 14.7778 62.9555 13.902C63.5743 13.0146 64.4268 12.3197 65.5128 11.8176C66.5988 11.3155 67.8424 11.0645 69.2437 11.0645C70.6566 11.0645 71.9002 11.3155 72.9746 11.8176C74.0606 12.3197 74.9072 13.0146 75.5144 13.902C76.1333 14.7778 76.4428 15.7938 76.4428 16.9498V18.0008C76.4428 19.1451 76.1333 20.161 75.5144 21.0485C74.9072 21.9361 74.0606 22.6307 72.9746 23.1329C71.9002 23.6351 70.6566 23.8861 69.2437 23.8861ZM69.2437 19.8574C69.8275 19.8574 70.3122 19.6765 70.6975 19.3145C71.0945 18.9524 71.2931 18.5145 71.2931 18.0008V16.9498C71.2931 16.436 71.0945 15.9981 70.6975 15.6361C70.3122 15.2741 69.8275 15.0931 69.2437 15.0931C68.6715 15.0931 68.1868 15.2741 67.7899 15.6361C67.3928 15.9981 67.1944 16.436 67.1944 16.9498V18.0008C67.1944 18.5145 67.3928 18.9524 67.7899 19.3145C68.1868 19.6765 68.6715 19.8574 69.2437 19.8574Z" fill="#01204E"/>
<path d="M51.7392 23.6059L47.1851 11.3447H52.3698L54.8395 19.5598L57.4144 11.3447H62.5991L58.0449 23.6059H51.7392Z" fill="#01204E"/>
</g>
<defs>
<clipPath id="clip0_12626_10753">
<rect width="110" height="23.9968" fill="white"/>
</clipPath>
</defs>
</svg>
